<?xml version="1.0" encoding="UTF-8"?>
<svg xmlns="http://www.w3.org/2000/svg" xmlns:xlink="http://www.w3.org/1999/xlink" xmlns:xodm="http://www.corel.com/coreldraw/odm/2003" xml:space="preserve" width="122.337mm" height="22.08mm" version="1.1" style="shape-rendering:geometricPrecision; text-rendering:geometricPrecision; image-rendering:optimizeQuality; fill-rule:evenodd; clip-rule:evenodd" viewBox="0 0 12224.41 2206.32">
 <defs>
  <style type="text/css">
   
    .fil1 {fill:#FEFEFE}
    .fil0 {fill:#FEFEFE;fill-rule:nonzero}
   
  </style>
 </defs>
 <g id="Layer_x0020_1">
  <metadata id="CorelCorpID_0Corel-Layer"></metadata>
  <g id="_2348439270112">
   <path class="fil0" d="M1559.34 2157.31l52.98 0 31.8 -73.74 198.7 0 31.8 73.74 52.98 0 -136.88 -309.09 -94.5 0 -136.88 309.09zm101.55 -113.48l64.91 -151.44 35.32 0 64.91 151.44 -165.14 0zm485.86 -41.06c0,95.38 72.41,158.96 181.04,158.96 34.44,0 65.79,-6.62 92.73,-18.99 18.99,32.24 38.41,63.58 84.34,63.58l25.16 0 0 -41.95 -13.68 0c-28.27,0 -43.28,-20.75 -58.29,-45.93 31.35,-27.37 50.33,-66.23 50.33,-115.68 0,-95.38 -71.98,-158.96 -180.59,-158.96 -108.63,0 -181.04,63.58 -181.04,158.96zm50.34 0c0,-71.54 53.43,-117.45 130.7,-117.45 77.27,0 130.26,45.92 130.26,117.45 0,29.59 -9.27,55.19 -25.61,74.62 -19.87,-26.05 -47.69,-48.57 -99.79,-48.57l-34 0 0 44.16 34 0c30.47,0 49.45,13.25 64.47,32.24 -19.44,9.71 -43.28,15.45 -69.33,15.45 -77.27,0 -130.7,-46.36 -130.7,-117.89zm601.54 117.89c-61.81,0 -105.53,-30.84 -105.53,-91.69l0 -180.74 -49.45 0 0 180.74c0,84.71 61.81,132.76 154.98,132.76 92.73,0 154.54,-48.05 154.54,-132.76l0 -180.74 -49 0 0 180.74c0,60.85 -44.61,91.69 -105.54,91.69zm254.5 36.65l52.98 0 31.8 -73.74 198.7 0 31.8 73.74 52.98 0 -136.88 -309.09 -94.5 0 -136.88 309.09zm101.55 -113.48l64.91 -151.44 35.32 0 64.91 151.44 -165.14 0zm388.72 113.48l260.51 0 0 -43.28 -211.06 0 0 -265.81 -49.45 0 0 309.09zm395.79 0l49.45 0 0 -309.09 -49.45 0 0 309.09zm317.19 0l49.45 0 0 -265.82 150.58 0 0 -43.27 -350.15 0 0 43.27 150.13 0 0 265.82zm437.29 0l49.45 0 0 -119.22 148.81 -189.87 -58.73 0 -109.95 145.27 -11.48 0 -110.39 -145.27 -58.29 0 150.57 192.07 0 117.01zm658.07 -90.52c0,36.65 -34.88,53.43 -101.99,52.99 -56.53,-0.44 -114.36,-12.81 -138.65,-16.34l0 44.16c31.36,5.3 82.58,13.25 132.91,13.69 104.65,1.32 157.2,-30.03 157.2,-92.29 0,-89.63 -77.72,-88.31 -136.89,-88.31 -59.17,0 -103.76,-1.32 -103.76,-44.16 0,-39.29 40.18,-50.77 85.65,-52.1 40.18,-0.88 95.82,5.75 139.09,15.02l0 -43.28c-39.3,-7.94 -82.13,-12.8 -127.61,-12.36 -79.92,0.88 -146.6,18.11 -146.6,91.4 0,90.52 81.69,87.42 149.25,88.31 49.45,0.44 91.4,3.09 91.4,43.27zm184.73 90.52l49.45 0 0 -108.62 124.08 0c86.54,0 128.05,-34.44 128.05,-100.23 0,-65.35 -41.51,-100.23 -128.05,-100.23l-173.53 0 0 309.09zm172.21 -267.59c56.52,0 79.03,19 79.03,58.74 0,39.74 -22.51,58.73 -79.03,58.73l-122.76 0 0 -117.46 122.76 0zm264.64 267.59l269.35 0 0 -43.28 -219.89 0 0 -97.14 184.57 0 0 -43.28 -184.57 0 0 -82.13 219.89 0 0 -43.27 -269.35 0 0 309.09zm378.12 0l52.98 0 31.8 -73.74 198.7 0 31.8 73.74 52.98 0 -136.88 -309.09 -94.5 0 -136.88 309.09zm101.55 -113.48l64.91 -151.44 35.32 0 64.91 151.44 -165.14 0zm388.72 113.48l49.45 0 0 -86.98 56.96 -48.13c86.99,8.39 110.4,135.12 185.9,135.12l48.13 0 0 -45.93 -36.65 0c-45.49,0 -81.69,-102.44 -156.31,-123.64l165.58 -139.52 -67.56 0 -191.63 163.38 -4.42 0 0 -163.38 -49.45 0 0 309.09zm462.46 0l49.45 0 0 -309.09 -49.45 0 0 309.09zm202.39 0l49.45 0 0 -226.08 7.5 0 187.67 226.08 49.45 0 0 -309.09 -49.45 0 0 226.52 -7.06 0 -188.11 -226.52 -49.45 0 0 309.09zm617.89 -37.09c-83.01,0 -138.2,-43.27 -138.2,-117.45 0,-74.18 54.31,-117.45 136,-117.45 49.01,0 104.65,5.74 137.77,15.01l0 -43.28c-35.76,-9.26 -78.15,-13.24 -135.12,-13.24 -112.59,0 -188.99,60.93 -188.99,158.96 0,98.03 76.39,158.96 188.11,158.96 54.75,0 103.76,-4.86 147.04,-15.02l0 -151.44 -49.45 0 0 119.22c-27.38,3.53 -63.14,5.74 -97.15,5.74zm405.5 37.09l181.03 0c87.43,0 128.05,-27.38 128.05,-86.1 0,-35.76 -20.75,-61.37 -58.73,-71.53l0 -4.42c31.35,-12.37 46.8,-35.32 46.8,-64.03 0,-56.96 -41.51,-83.01 -128.05,-83.01l-169.11 0 0 309.09zm167.79 -267.59c55.19,0 79.04,13.69 79.04,45.49 0,31.35 -23.85,45.04 -79.04,45.04l-118.34 0 0 -90.52 118.34 0zm11.92 128.49c55.19,0 79.04,14.58 79.04,48.57 0,34 -24.29,49.01 -79.04,49.01l-130.26 0 0 -97.59 130.26 0zm264.65 139.09l49.45 0 0 -118.78 78.6 0c81.69,11.04 85.65,118.78 159.84,118.78l48.13 0 0 -44.16 -36.65 0c-32.68,0 -50.34,-45.48 -84.34,-77.71 56.96,0 86.54,-35.32 86.54,-90.96 0,-62.7 -41.51,-96.26 -128.05,-96.26l-173.53 0 0 309.09zm172.21 -267.59c56.52,0 79.03,17.67 79.03,54.76 0,37.09 -22.51,54.75 -79.03,54.75l-122.76 0 0 -109.51 122.76 0zm254.93 267.59l52.98 0 31.8 -73.74 198.7 0 31.8 73.74 52.98 0 -136.88 -309.09 -94.5 0 -136.88 309.09zm101.55 -113.48l64.91 -151.44 35.32 0 64.91 151.44 -165.14 0zm388.72 113.48l49.45 0 0 -226.08 7.5 0 187.67 226.08 49.45 0 0 -309.09 -49.45 0 0 226.52 -7.06 0 -188.11 -226.52 -49.45 0 0 309.09zm447.01 0l165.58 0c96.7,0 160.73,-59.17 160.73,-154.54 0,-95.38 -64.03,-154.54 -160.73,-154.54l-165.58 0 0 309.09zm165.58 -267.59c65.35,0 110.39,41.51 110.39,113.04 0,71.53 -45.04,113.03 -110.39,113.03l-116.13 0 0 -226.08 116.13 0z"></path>
   <path class="fil1" d="M-0 1422.66l301.81 0 0 -1419.07 809.11 1419.07 337.77 0 809.11 -1419.07 301.81 0 0 1419.07 -301.81 0 0 -1419.07 -337.78 0 -640.21 1122.87 -640.22 -1122.87 -337.78 0 -301.81 0 0 1419.07zm11755.57 -226.45l0.98 -1.7 130.08 228.15 337.77 0 -809.1 -1419.07 -337.78 0 -809.11 1419.07 -337.77 0 809.1 -1419.07 337.78 0 511.53 897.16 -670.39 -5.89 -168.89 292.52 1005.81 8.83zm-5890.66 0l-0.98 -1.7 -130.08 228.15 -337.77 0 809.1 -1419.07 337.78 0 809.11 1419.07 337.77 0 -809.1 -1419.07 -337.78 0 -511.53 897.16 670.39 -5.89 168.89 292.52 -1005.81 8.83zm2051.6 226.45l301.81 0 0 -503.84 419.41 0c224.67,0 265.8,93.63 390.27,258.83 98.65,130.89 236.01,241.87 420.64,241.87l248.03 0 0 -275.14 -195.04 0c-182.43,0 -222.24,-159.41 -301.25,-241.92 506.04,-46.91 604.56,-933.01 -279.48,-901.64l-1004.4 0 0 2.77 0 1415.93 0 3.14zm301.81 -765.71l0 -399.65 747.24 0c136.02,0 303.67,24.26 313.23,181.3 10.87,178.48 -164.67,218.34 -313.23,218.34l-747.24 0zm-4048.81 -653.36l1044.81 0 0 297.59 -1043.06 0c-225.7,0 -410.37,184.67 -410.37,410.37l0 0.02c0,225.69 184.67,410.36 410.37,410.36l1043.06 0 0 297.59 -1044.81 0c-389.36,0 -707.95,-318.58 -707.95,-707.96l0 -0.01c0,-389.38 318.58,-707.96 707.95,-707.96zm-1276.55 1419.07l301.81 0 0 -1419.07 -301.81 0 0 1419.07z"></path>
   <path class="fil0" d="M11989.84 0l0 27.7 -59.9 0 0 158.7 -31.16 0 0 -158.7 -59.91 0 0 -27.7 150.98 0zm226.6 0l0 186.4 -30.89 0 0 -114.5c0,-7.45 0.27,-13.67 0.8,-18.64l-0.53 -0.27c-1.6,2.85 -4.8,7.81 -9.58,14.92l-4 5.86 -49.26 72.95 -10.65 0 -48.73 -72.68c-3.37,-4.8 -7.89,-11.45 -13.58,-19.97l-0.8 0.27c0.54,4.97 0.8,11.18 0.8,18.64l0 113.43 -30.89 0 0 -186.4 30.36 0 68.44 102.52 68.43 -102.52 30.09 0z"></path>
  </g>
 </g>
</svg>
